<?xml version="1.0" standalone="no"?>
<!DOCTYPE svg PUBLIC "-//W3C//DTD SVG 20010904//EN"
 "http://www.w3.org/TR/2001/REC-SVG-20010904/DTD/svg10.dtd">
<svg version="1.0" xmlns="http://www.w3.org/2000/svg"
 width="577.000000pt" height="613.000000pt" viewBox="0 0 577.000000 613.000000"
 preserveAspectRatio="xMidYMid meet">

<g transform="translate(0.000000,613.000000) scale(0.100000,-0.100000)"
fill="#000000" stroke="none">
<path d="M2681 5775 c-17 -15 -39 -50 -51 -83 -12 -31 -46 -104 -77 -162 -184
-350 -412 -595 -734 -788 -295 -177 -472 -383 -510 -594 -31 -176 54 -356 230
-487 132 -98 271 -156 523 -220 65 -17 134 -37 153 -47 89 -42 131 -142 122
-284 -6 -95 -27 -163 -59 -197 -27 -29 -87 -31 -160 -3 -63 23 -350 90 -538
124 -199 36 -354 49 -524 44 -136 -4 -158 -7 -208 -30 -102 -47 -150 -149
-113 -244 22 -58 137 -206 211 -272 69 -62 185 -124 274 -147 83 -22 24 -21
1695 -13 1571 8 1456 3 1595 73 136 69 306 220 354 316 46 92 28 214 -38 267
-54 42 -89 47 -331 47 -308 0 -508 -31 -885 -136 -287 -80 -300 -82 -342 -70
-77 23 -122 122 -122 271 -1 97 19 153 73 208 47 47 70 56 263 111 305 88 445
157 556 275 96 103 142 225 142 377 0 227 -105 375 -379 539 -421 252 -696
546 -917 982 -77 154 -90 168 -149 168 -13 0 -37 -11 -54 -25z m143 -431 c140
-279 270 -449 598 -775 212 -210 241 -244 270 -305 30 -62 33 -78 33 -159 0
-80 -3 -97 -30 -148 -53 -105 -189 -210 -343 -267 -160 -58 -352 -79 -384 -42
-35 39 -32 61 12 100 110 96 148 140 169 196 47 127 10 295 -86 388 -92 89
-305 132 -465 94 -217 -51 -351 -291 -266 -478 26 -56 98 -137 171 -191 45
-34 50 -75 12 -112 -29 -30 -59 -31 -176 -9 -274 52 -466 166 -535 316 -23 51
-28 77 -28 138 -1 153 50 238 287 474 196 194 321 337 424 482 81 113 199 316
233 399 12 30 24 54 26 52 2 -2 37 -71 78 -153z"/>
<path d="M4900 2156 l0 -85 -66 0 c-77 0 -109 -16 -130 -66 -28 -67 -10 -156
37 -189 36 -25 92 -21 128 10 17 14 32 21 32 15 3 -26 4 -30 12 -37 4 -4 7 92
7 214 0 141 -4 222 -10 222 -6 0 -10 -35 -10 -84z m-16 -102 c13 -5 16 -22 16
-79 0 -117 -23 -155 -94 -155 -57 0 -87 31 -94 98 -5 61 17 108 61 127 34 15
85 19 111 9z"/>
<path d="M443 2194 c-46 -23 -61 -72 -36 -122 14 -28 34 -46 89 -75 96 -52
119 -103 69 -152 -19 -20 -34 -25 -74 -25 -27 0 -61 4 -75 10 -20 7 -26 6 -26
-4 0 -28 121 -36 169 -12 30 16 51 53 51 91 0 35 -46 84 -104 109 -60 27 -83
51 -92 93 -13 64 70 104 150 73 20 -7 26 -6 26 4 0 27 -98 34 -147 10z"/>
<path d="M1290 2008 c0 -138 4 -208 10 -208 7 0 10 60 8 180 -2 99 0 179 4
178 4 -2 64 -82 133 -178 70 -96 131 -176 136 -178 5 -2 9 82 9 202 0 135 -4
206 -10 206 -7 0 -10 -61 -10 -176 1 -97 0 -178 -2 -180 -3 -2 -52 63 -111
144 -58 81 -119 163 -136 182 l-30 35 -1 -207z"/>
<path d="M2520 2198 c0 -9 19 -56 42 -105 38 -80 43 -97 48 -187 3 -67 9 -101
18 -104 9 -3 12 19 12 87 0 87 2 93 50 197 28 59 49 112 46 118 -2 6 -27 -37
-55 -96 -28 -60 -53 -108 -54 -108 -2 0 -23 44 -47 98 -46 103 -60 126 -60
100z"/>
<path d="M3690 2005 l0 -205 95 0 c57 0 95 4 95 10 0 6 -35 10 -85 10 l-85 0
0 90 0 90 70 0 c40 0 70 4 70 10 0 6 -30 10 -70 10 l-70 0 0 86 0 85 68 -1
c89 -2 92 -2 92 10 0 6 -37 10 -90 10 l-90 0 0 -205z"/>
<path d="M4980 2155 c0 -8 7 -15 15 -15 8 0 15 7 15 15 0 8 -7 15 -15 15 -8 0
-15 -7 -15 -15z"/>
<path d="M950 2105 c0 -38 -3 -45 -20 -45 -11 0 -20 -5 -20 -10 0 -6 8 -10 18
-8 15 3 18 -9 22 -103 3 -69 10 -112 19 -123 13 -16 65 -22 95 -10 31 12 16
22 -24 17 -63 -9 -70 3 -70 121 l0 102 44 -3 c25 -2 47 1 51 7 4 6 -13 10 -44
10 l-51 0 0 45 c0 25 -4 45 -10 45 -5 0 -10 -20 -10 -45z"/>
<path d="M4220 2105 c0 -42 -2 -45 -26 -45 -14 0 -23 -4 -19 -10 3 -5 15 -10
26 -10 18 0 19 -8 19 -100 0 -87 3 -103 20 -120 20 -20 63 -26 94 -14 31 12
16 22 -24 17 -63 -9 -70 3 -70 118 l0 99 44 0 c25 0 48 5 51 10 4 6 -13 10
-44 10 l-51 0 0 45 c0 25 -4 45 -10 45 -5 0 -10 -20 -10 -45z"/>
<path d="M744 2070 c-36 -8 -54 -18 -54 -30 0 -5 18 -1 40 7 52 21 101 8 114
-29 16 -45 3 -58 -58 -58 -68 0 -116 -34 -116 -81 0 -72 89 -104 149 -53 l31
26 0 -26 c0 -14 5 -26 11 -26 15 0 8 235 -7 250 -17 17 -75 27 -110 20z m106
-129 c0 -67 -42 -121 -94 -121 -69 0 -88 86 -26 117 28 14 120 18 120 4z"/>
<path d="M1723 2068 c-26 -6 -43 -15 -43 -23 0 -12 5 -12 35 1 70 29 125 5
125 -56 0 -30 0 -30 -56 -30 -82 0 -123 -28 -124 -83 -1 -72 96 -103 151 -48
l29 29 0 -29 c0 -16 5 -29 11 -29 15 0 8 235 -7 250 -19 19 -76 27 -121 18z
m112 -128 c11 -18 -5 -67 -30 -94 -17 -19 -34 -26 -59 -26 -69 0 -88 86 -26
117 30 15 106 17 115 3z"/>
<path d="M2791 2067 c-54 -19 -76 -57 -76 -134 0 -62 2 -66 37 -99 40 -36 89
-45 142 -24 58 22 87 140 52 208 -25 47 -96 70 -155 49z m106 -27 c36 -22 49
-64 40 -132 -8 -58 -40 -88 -94 -88 -57 0 -81 14 -99 55 -51 123 48 230 153
165z"/>
<path d="M3128 2069 c-65 -17 -108 -74 -108 -144 0 -107 78 -159 149 -99 l31
26 0 -57 c0 -46 -4 -60 -25 -80 -26 -27 -80 -34 -116 -15 -15 8 -19 7 -19 -3
0 -15 41 -27 87 -27 15 0 39 14 59 34 l34 34 0 165 0 165 -34 4 c-18 2 -45 1
-58 -3z m70 -94 c2 -71 0 -85 -20 -115 -19 -28 -31 -36 -61 -38 -32 -3 -39 1
-57 30 -54 88 10 214 105 206 l30 -3 3 -80z"/>
<path d="M3982 2070 c-12 -5 -27 -21 -34 -35 -18 -40 3 -70 72 -105 52 -26 60
-34 60 -59 0 -42 -21 -54 -85 -49 -30 3 -55 1 -55 -3 0 -25 109 -26 140 -1 42
34 16 110 -44 128 -36 11 -76 45 -76 64 0 36 29 53 82 46 30 -4 48 -3 48 4 0
5 -6 10 -14 10 -7 0 -26 2 -42 5 -16 2 -39 0 -52 -5z"/>
<path d="M5151 2067 c-45 -16 -72 -54 -78 -111 -10 -88 42 -156 120 -156 84 0
127 47 127 140 0 72 -25 115 -77 129 -46 13 -49 13 -92 -2z m93 -17 c38 -14
59 -63 54 -127 -6 -72 -35 -103 -95 -103 -57 0 -81 14 -99 55 -18 45 -18 89 2
130 23 49 79 68 138 45z"/>
<path d="M1920 1935 c0 -83 4 -135 10 -135 6 0 10 40 10 101 0 98 1 101 29
130 34 34 69 37 102 10 22 -18 24 -28 27 -130 2 -61 8 -111 13 -111 5 0 9 47
9 104 0 104 0 104 31 130 36 30 68 33 98 9 18 -16 21 -30 23 -128 3 -118 21
-152 26 -50 5 89 -7 164 -29 186 -29 29 -99 26 -130 -5 l-25 -24 -23 24 c-31
32 -95 33 -128 2 l-23 -21 0 21 c0 12 -4 22 -10 22 -6 0 -10 -52 -10 -135z"/>
<path d="M3318 2059 c-32 -18 -19 -28 17 -13 70 29 125 5 125 -56 0 -30 0 -30
-56 -30 -82 0 -123 -28 -124 -83 -1 -72 96 -103 151 -48 l29 29 0 -29 c0 -16
5 -29 11 -29 7 0 10 39 7 121 -3 106 -5 122 -22 135 -23 16 -112 18 -138 3z
m142 -121 c0 -34 -23 -89 -43 -103 -12 -8 -36 -15 -54 -15 -66 0 -83 87 -23
117 33 17 120 17 120 1z"/>
<path d="M4412 1959 c3 -107 4 -112 31 -135 41 -35 99 -33 138 5 l29 29 0 -29
c0 -16 5 -29 10 -29 6 0 10 52 10 135 0 83 -4 135 -10 135 -6 0 -10 -35 -10
-85 0 -122 -26 -165 -102 -167 -22 -1 -38 7 -55 26 -21 24 -23 37 -23 127 0
65 -4 99 -11 99 -7 0 -10 -36 -7 -111z"/>
<path d="M4985 2059 c-10 -25 -1 -249 10 -252 13 -3 19 228 6 251 -8 15 -10
15 -16 1z"/>
<path d="M2853 1592 c-2153 -2 -2433 -4 -2433 -17 0 -13 281 -15 2460 -15
2180 0 2460 2 2460 15 0 8 -3 15 -7 16 -5 0 -17 1 -28 2 -11 1 -1115 1 -2452
-1z"/>
<path d="M4599 1413 c-18 -26 -25 -42 -15 -34 24 20 59 71 53 77 -3 3 -20 -16
-38 -43z"/>
<path d="M1992 1311 c3 -120 6 -142 22 -160 20 -22 60 -28 71 -11 4 7 -2 9
-18 5 -49 -13 -57 12 -57 166 0 94 -4 139 -11 139 -8 0 -10 -43 -7 -139z"/>
<path d="M3740 1392 l0 -58 -47 0 c-62 0 -89 -16 -103 -60 -24 -72 13 -144 74
-144 31 1 75 25 64 35 -3 3 -11 -1 -18 -10 -18 -21 -53 -19 -85 7 -25 19 -27
26 -23 75 6 65 24 82 91 83 l49 0 -2 -72 c-3 -101 -1 -118 10 -118 6 0 10 60
10 160 0 100 -4 160 -10 160 -6 0 -10 -26 -10 -58z"/>
<path d="M746 1408 c3 -11 19 -49 35 -82 23 -48 29 -75 29 -128 0 -39 4 -68
10 -68 6 0 10 30 10 69 0 59 5 80 36 145 20 42 35 79 32 81 -2 3 -20 -27 -38
-65 -19 -39 -37 -70 -41 -70 -3 0 -20 32 -38 70 -29 67 -50 95 -35 48z"/>
<path d="M1925 1400 c-3 -5 -1 -10 4 -10 6 0 11 5 11 10 0 6 -2 10 -4 10 -3 0
-8 -4 -11 -10z"/>
<path d="M3805 1400 c-3 -5 -1 -10 4 -10 6 0 11 5 11 10 0 6 -2 10 -4 10 -3 0
-8 -4 -11 -10z"/>
<path d="M4435 1400 c-3 -5 -1 -10 4 -10 6 0 11 5 11 10 0 6 -2 10 -4 10 -3 0
-8 -4 -11 -10z"/>
<path d="M2352 1363 c-1 -22 -7 -33 -17 -33 -8 0 -15 -4 -15 -10 0 -5 7 -10
15 -10 12 0 15 -15 15 -71 0 -39 5 -79 10 -90 12 -21 55 -26 80 -8 11 7 5 8
-22 3 -35 -6 -39 -4 -48 22 -6 15 -10 55 -8 88 l3 61 38 -3 c22 -2 37 1 37 7
0 6 -18 11 -39 11 -37 0 -40 2 -44 33 l-4 32 -1 -32z"/>
<path d="M3892 1363 c-1 -22 -7 -33 -17 -33 -8 0 -15 -4 -15 -10 0 -5 7 -10
15 -10 12 0 15 -15 15 -74 0 -54 4 -79 16 -90 18 -18 52 -21 74 -5 11 7 5 8
-22 3 -34 -6 -39 -4 -48 21 -5 14 -10 53 -10 86 l0 59 40 0 c22 0 40 5 40 10
0 6 -18 10 -39 10 -37 0 -40 2 -44 33 l-4 32 -1 -32z"/>
<path d="M944 1326 c-59 -26 -69 -135 -17 -176 65 -51 153 -2 153 84 0 79 -65
124 -136 92z m102 -27 c13 -14 19 -36 19 -66 0 -37 -5 -49 -28 -69 -36 -31
-71 -31 -102 1 -33 32 -35 105 -5 135 28 28 90 27 116 -1z"/>
<path d="M1184 1326 c-59 -26 -79 -116 -38 -174 18 -26 65 -30 84 -7 7 8 16
15 21 15 15 0 10 -64 -7 -89 -14 -19 -24 -22 -60 -19 -49 4 -59 -7 -16 -17 36
-7 78 8 91 34 6 11 11 73 11 139 0 116 -1 120 -22 126 -29 7 -28 8 -64 -8z
m76 -61 c0 -91 -40 -142 -90 -115 -24 13 -34 49 -27 98 8 45 38 72 83 72 l34
0 0 -55z"/>
<path d="M1375 1333 c-42 -10 -34 -20 13 -15 44 4 51 2 62 -18 19 -35 6 -50
-43 -50 -72 0 -110 -57 -67 -100 26 -26 60 -25 93 0 l26 20 4 -22 c2 -13 5 18
6 68 1 63 -3 95 -12 102 -16 14 -57 21 -82 15z m77 -120 c-6 -34 -39 -73 -63
-73 -23 0 -49 27 -49 50 0 31 28 50 74 50 42 0 43 -1 38 -27z"/>
<path d="M1758 1326 c-16 -8 -28 -11 -28 -5 0 5 -4 9 -10 9 -6 0 -10 -57 -10
-150 0 -93 4 -150 10 -150 6 0 10 23 10 50 l0 50 40 0 c106 0 154 166 58 199
-39 14 -37 14 -70 -3z m98 -43 c30 -71 -26 -152 -98 -141 -21 3 -23 9 -26 66
-4 85 13 112 69 112 37 0 41 -3 55 -37z"/>
<path d="M2185 1333 c-44 -11 -36 -22 12 -16 46 5 52 3 63 -17 18 -34 6 -50
-38 -50 -45 0 -92 -31 -92 -61 0 -26 35 -59 64 -59 13 0 35 9 49 20 l26 20 4
-22 c2 -13 5 18 6 68 1 63 -3 95 -12 102 -16 14 -57 21 -82 15z m75 -122 c0
-20 -9 -36 -26 -50 -32 -25 -47 -26 -68 -5 -38 37 -7 84 55 84 36 0 39 -2 39
-29z"/>
<path d="M2508 1325 c-52 -29 -60 -124 -15 -172 14 -16 32 -23 58 -23 42 0 69
8 69 21 0 5 -12 4 -26 -1 -14 -6 -34 -10 -45 -10 -25 0 -69 43 -69 68 0 16 10
20 72 26 39 3 74 8 76 11 7 6 -6 48 -20 67 -18 25 -68 31 -100 13z m92 -24
c23 -43 14 -51 -55 -51 -51 0 -65 3 -65 15 0 47 98 77 120 36z"/>
<path d="M2714 1330 c-50 -20 -33 -74 33 -106 70 -35 45 -94 -34 -79 -24 4
-33 3 -28 -4 11 -19 83 -13 105 9 11 11 20 25 20 30 0 15 -40 52 -79 72 -24
13 -32 24 -29 40 3 20 9 23 51 23 50 0 62 9 25 19 -29 7 -38 7 -64 -4z"/>
<path d="M3088 1324 c-16 -8 -28 -10 -28 -4 0 5 -4 10 -10 10 -6 0 -10 -40
-10 -100 0 -60 4 -100 10 -100 6 0 10 33 10 78 0 87 14 112 62 112 39 0 52
-25 59 -114 l6 -81 1 75 c2 92 18 120 67 120 19 0 37 -6 42 -12 4 -7 11 -51
14 -98 l6 -85 1 85 c2 91 -1 101 -35 119 -23 12 -71 0 -85 -22 -5 -8 -12 -7
-25 5 -28 24 -55 28 -85 12z"/>
<path d="M3422 1330 c-56 -23 -65 -140 -15 -180 34 -27 123 -26 123 1 0 5 -12
4 -26 -1 -14 -6 -34 -10 -45 -10 -25 0 -69 43 -69 68 0 16 10 20 72 26 39 3
74 8 76 11 7 6 -6 48 -20 67 -16 22 -65 31 -96 18z m88 -29 c23 -43 14 -51
-55 -51 -70 0 -78 7 -49 48 20 30 88 31 104 3z"/>
<path d="M4085 1333 c-44 -11 -36 -22 12 -16 46 5 52 3 63 -17 19 -35 6 -50
-44 -50 -36 0 -48 -5 -65 -26 -26 -33 -26 -49 -1 -74 26 -26 60 -25 93 0 l26
20 4 -22 c2 -13 5 18 6 68 1 63 -3 95 -12 102 -16 14 -57 21 -82 15z m73 -125
c-4 -44 -48 -76 -83 -60 -17 8 -25 20 -25 36 0 36 26 56 71 56 39 0 40 -1 37
-32z"/>
<path d="M4268 1325 c-54 -30 -60 -136 -11 -175 34 -27 123 -26 123 1 0 5 -12
4 -26 -1 -66 -25 -114 11 -114 85 0 65 26 89 91 83 54 -6 67 6 18 16 -43 8
-50 7 -81 -9z"/>
<path d="M4554 1326 c-59 -26 -69 -135 -17 -176 66 -52 153 -4 153 85 0 78
-66 122 -136 91z m102 -27 c13 -14 19 -36 19 -66 0 -37 -5 -49 -28 -69 -36
-31 -71 -31 -102 1 -33 32 -35 105 -5 135 28 28 90 27 116 -1z"/>
<path d="M4783 1325 c-18 -8 -33 -10 -33 -5 0 6 -4 10 -10 10 -6 0 -10 -40
-10 -100 0 -60 4 -100 10 -100 6 0 10 33 10 79 0 71 2 82 22 95 27 19 79 21
96 4 7 -7 12 -44 12 -95 0 -49 4 -83 10 -83 6 0 10 33 10 79 0 61 -4 83 -17
99 -24 27 -62 33 -100 17z"/>
<path d="M1934 1230 c0 -58 1 -81 3 -52 2 28 2 76 0 105 -2 28 -3 5 -3 -53z"/>
<path d="M3814 1230 c0 -58 1 -81 3 -52 2 28 2 76 0 105 -2 28 -3 5 -3 -53z"/>
<path d="M4444 1230 c0 -58 1 -81 3 -52 2 28 2 76 0 105 -2 28 -3 5 -3 -53z"/>
<path d="M1531 1162 c-6 -12 -11 -29 -11 -39 1 -11 7 -4 16 16 16 37 12 55 -5
23z"/>
<path d="M2871 1162 c-6 -12 -11 -29 -10 -39 0 -11 6 -6 15 16 16 37 12 55 -5
23z"/>
<path d="M3002 791 c3 -120 6 -142 22 -160 20 -22 60 -28 71 -11 4 7 -2 9 -18
5 -49 -13 -57 12 -57 166 0 92 -4 139 -11 139 -7 0 -9 -44 -7 -139z"/>
<path d="M2265 880 c-3 -5 -1 -10 4 -10 6 0 11 5 11 10 0 6 -2 10 -4 10 -3 0
-8 -4 -11 -10z"/>
<path d="M4145 880 c-3 -5 -1 -10 4 -10 6 0 11 5 11 10 0 6 -2 10 -4 10 -3 0
-8 -4 -11 -10z"/>
<path d="M1422 843 c-1 -22 -7 -33 -17 -33 -8 0 -15 -4 -15 -10 0 -5 7 -10 15
-10 12 0 15 -15 15 -71 0 -82 11 -109 45 -109 29 0 55 9 55 20 0 5 -13 3 -30
-3 -43 -16 -54 0 -58 88 l-4 75 41 0 c23 0 41 5 41 10 0 6 -18 10 -39 10 -37
0 -40 2 -44 33 l-4 32 -1 -32z"/>
<path d="M3132 843 c-1 -22 -7 -33 -17 -33 -8 0 -15 -4 -15 -10 0 -5 7 -10 15
-10 12 0 15 -15 15 -71 0 -39 5 -79 10 -90 12 -21 55 -26 80 -8 11 7 5 8 -22
3 -34 -6 -39 -4 -48 21 -5 14 -10 53 -10 86 l0 59 40 0 c22 0 40 5 40 10 0 6
-18 10 -39 10 -37 0 -40 2 -44 33 l-4 32 -1 -32z"/>
<path d="M4002 843 c-1 -22 -7 -33 -17 -33 -8 0 -15 -4 -15 -10 0 -5 7 -10 15
-10 12 0 15 -15 15 -71 0 -39 5 -79 10 -90 12 -21 55 -26 80 -8 11 8 8 9 -15
5 -49 -10 -59 5 -63 88 l-4 76 41 0 c23 0 41 5 41 10 0 6 -18 10 -39 10 -37 0
-40 2 -44 33 l-4 32 -1 -32z"/>
<path d="M1578 805 c-54 -30 -60 -136 -11 -175 34 -27 123 -26 123 1 0 5 -12
4 -26 -1 -14 -6 -34 -10 -45 -10 -25 0 -69 43 -69 68 0 16 10 20 72 26 39 3
74 8 76 11 7 6 -6 48 -20 67 -18 25 -68 31 -100 13z m92 -24 c22 -41 14 -49
-55 -53 -57 -3 -65 -1 -65 15 0 49 97 80 120 38z"/>
<path d="M1791 809 c-31 -12 -24 -18 16 -12 18 3 30 9 27 14 -6 11 -12 11 -43
-2z"/>
<path d="M1915 813 c-44 -11 -36 -22 12 -16 46 5 52 3 63 -17 19 -35 6 -50
-43 -50 -55 0 -92 -33 -81 -74 12 -48 63 -60 107 -26 l26 20 4 -22 c2 -13 5
18 6 68 1 63 -3 95 -12 102 -16 14 -57 21 -82 15z m75 -120 c0 -31 -35 -73
-61 -73 -23 0 -49 27 -49 50 0 30 28 50 71 50 36 0 39 -2 39 -27z"/>
<path d="M2098 804 c-16 -8 -28 -10 -28 -4 0 5 -4 10 -10 10 -6 0 -10 -57 -10
-150 0 -93 4 -150 10 -150 6 0 10 23 10 50 l0 50 41 0 c55 0 109 51 109 102 0
54 -11 78 -41 93 -35 18 -47 18 -81 -1z m79 -12 c19 -12 33 -59 27 -89 -10
-53 -49 -83 -103 -83 l-31 0 0 72 c0 52 4 76 17 90 16 18 68 24 90 10z"/>
<path d="M2385 813 c-42 -10 -34 -20 13 -15 44 4 51 2 62 -18 18 -34 6 -50
-38 -50 -54 0 -96 -33 -87 -69 3 -14 13 -32 22 -38 23 -18 68 -16 83 2 16 20
27 19 33 -2 3 -10 5 23 6 73 1 63 -3 95 -12 102 -16 14 -57 21 -82 15z m75
-121 c0 -18 -10 -38 -25 -52 -21 -20 -30 -22 -53 -14 -19 6 -28 17 -30 35 -4
37 22 59 69 59 36 0 39 -2 39 -28z"/>
<path d="M2540 800 c-11 -11 -20 -24 -20 -29 0 -17 35 -51 70 -69 68 -33 40
-92 -37 -77 -24 4 -33 3 -28 -4 11 -19 83 -13 105 9 11 11 20 25 20 30 0 15
-40 52 -79 72 -24 13 -32 24 -29 40 3 20 9 23 51 23 50 0 62 9 25 19 -39 10
-57 7 -78 -14z"/>
<path d="M2865 813 c-42 -10 -34 -20 13 -15 44 4 51 2 62 -18 18 -34 6 -50
-38 -50 -54 0 -96 -33 -87 -69 3 -14 13 -32 22 -38 23 -18 68 -16 83 2 16 20
27 19 33 -2 3 -10 5 23 6 73 1 63 -3 95 -12 102 -16 14 -57 21 -82 15z m75
-121 c0 -18 -10 -38 -25 -52 -21 -20 -30 -22 -53 -14 -19 6 -28 17 -30 35 -4
37 22 59 69 59 36 0 39 -2 39 -28z"/>
<path d="M3294 810 c-57 -23 -68 -140 -17 -180 34 -27 123 -26 123 1 0 5 -12
4 -26 -1 -40 -16 -63 -12 -89 15 -35 34 -33 65 4 65 60 0 121 13 121 26 0 26
-23 62 -47 73 -28 13 -40 13 -69 1z m86 -29 c23 -43 14 -51 -55 -51 -51 0 -65
3 -65 15 0 47 98 77 120 36z"/>
<path d="M3498 806 c-16 -8 -28 -11 -28 -5 0 5 -4 9 -10 9 -6 0 -10 -40 -10
-100 0 -60 4 -100 10 -100 6 0 10 33 10 78 0 86 14 112 59 112 12 0 19 4 16
10 -8 13 -15 13 -47 -4z"/>
<path d="M3623 805 c-18 -8 -33 -10 -33 -5 0 6 -4 10 -10 10 -6 0 -10 -40 -10
-100 0 -60 4 -100 10 -100 6 0 10 33 10 79 0 71 2 82 22 95 27 19 79 21 96 4
7 -7 12 -44 12 -95 0 -49 4 -83 10 -83 6 0 10 33 10 79 0 60 -4 84 -17 99 -24
28 -61 35 -100 17z"/>
<path d="M3845 813 c-44 -11 -36 -22 12 -16 46 5 52 3 63 -17 18 -34 6 -50
-38 -50 -45 0 -92 -31 -92 -61 0 -26 35 -59 64 -59 13 0 35 9 49 20 l26 20 4
-22 c2 -13 5 18 6 68 1 63 -3 95 -12 102 -16 14 -57 21 -82 15z m75 -120 c0
-56 -76 -97 -100 -54 -24 47 1 81 61 81 36 0 39 -2 39 -27z"/>
<path d="M4455 813 c-44 -11 -36 -22 12 -16 46 5 52 3 63 -17 18 -34 6 -50
-38 -50 -45 0 -92 -31 -92 -61 0 -26 35 -59 64 -59 13 0 35 9 49 20 l26 20 4
-22 c2 -13 5 18 6 68 1 63 -3 95 -12 102 -16 14 -57 21 -82 15z m75 -120 c0
-31 -35 -73 -61 -73 -23 0 -49 27 -49 50 0 30 28 50 71 50 36 0 39 -2 39 -27z"/>
<path d="M4624 810 c-50 -20 -37 -66 28 -102 74 -40 53 -99 -29 -83 -24 4 -33
3 -28 -4 11 -19 83 -13 105 9 11 11 20 25 20 30 0 15 -40 52 -79 72 -24 13
-32 24 -29 40 3 20 11 24 53 28 41 4 46 6 25 12 -31 9 -39 9 -66 -2z"/>
<path d="M1040 805 c0 -5 17 -49 37 -98 38 -92 38 -88 8 -159 -4 -10 -3 -18 2
-18 6 0 87 167 131 272 2 4 -1 8 -6 8 -5 0 -25 -37 -43 -82 -19 -46 -38 -83
-42 -83 -5 0 -23 35 -40 77 -31 73 -47 102 -47 83z"/>
<path d="M1740 710 c0 -55 4 -100 9 -100 9 0 20 163 13 188 -2 6 -8 12 -13 12
-5 0 -9 -45 -9 -100z"/>
<path d="M2274 710 c0 -58 1 -81 3 -52 2 28 2 76 0 105 -2 28 -3 5 -3 -53z"/>
<path d="M4154 710 c0 -58 1 -81 3 -52 2 28 2 76 0 105 -2 28 -3 5 -3 -53z"/>
<path d="M4220 803 c0 -18 61 -182 70 -188 4 -2 21 32 38 78 16 45 33 90 37
100 4 9 3 17 -2 17 -4 0 -21 -36 -37 -81 -16 -44 -32 -77 -36 -72 -4 4 -17 37
-30 73 -23 64 -40 95 -40 73z"/>
</g>
</svg>
